# xmcd
#
# Track frame offsets:
#  150
#  13649
#  27906
#  40330
#  54717
#  67856
#  80364
#  93373
#  107064
#  122355
#  136043
#  145238
#  160072
#  173067
#  186442
#  200113
#  211767
#  225121
#  240703
#  255102
#  269435
#  293997
#
# Disc length: 4087 seconds
#
# Revision: 0
# Processed by: cddbd v1.5.1PL2 Copyright (c) Steve Scherf et al.
# Submitted via: Collectorz.com_Music_Collector 6.9
#
DISCID=250ff516
DTITLE=Trevino, Justin - More Loud Music And Strong Wine
DYEAR=2005
DGENRE=Traditional Country
TTITLE0=Loud Music And Strong Wine
TTITLE1=One More Drink And Then I'll Go
TTITLE2=My Heart Has Finally Said Goodbye
TTITLE3=Two Arms Two Lips Too Lonely Too Long
TTITLE4=Teardrops Don't Lie
TTITLE5=You'd Be Home By Now
TTITLE6=Somebody's Old Memory Is Mine
TTITLE7=To Save My Wife
TTITLE8=I Only Make You Happy When I Cry
TTITLE9=She Went A Little Bit Farther
TTITLE10=I'd Know You Anywhere
TTITLE11=Your Memory Against Mine
TTITLE12=Undo The Right
TTITLE13=If I Ever Need A Lady
TTITLE14=Torn Between Love And Desire
TTITLE15=Odds And Ends
TTITLE16=Least I Can Do Is Try
TTITLE17=We Could
TTITLE18=Tribute To Kitty Wells
TTITLE19=Right Where You Want Me
TTITLE20=Sing A Sad Song
TTITLE21=Neon Nightmare
EXTD=
EXTT0=
EXTT1=
EXTT2=
EXTT3=
EXTT4=
EXTT5=
EXTT6=
EXTT7=
EXTT8=
EXTT9=
EXTT10=
EXTT11=
EXTT12=
EXTT13=
EXTT14=
EXTT15=
EXTT16=
EXTT17=
EXTT18=
EXTT19=
EXTT20=
EXTT21=
PLAYORDER=
